<svg xmlns="http://www.w3.org/2000/svg" version="1.1" xmlns:xlink="http://www.w3.org/1999/xlink" xmlns:svgjs="http://svgjs.com/svgjs" width="1440" height="560" preserveAspectRatio="none" viewBox="0 0 1440 560"><g mask="url(&quot;#SvgjsMask1110&quot;)" fill="none"><rect width="1440" height="560" x="0" y="0" fill="rgba(213, 66, 21, 1)"></rect><path d="M0,544.159C100.811,546.232,187.162,477.012,266.869,415.256C341.106,357.738,400.966,286.332,441.877,201.799C483.493,115.809,505.313,23.204,502.825,-72.295C500.103,-176.775,491.386,-287.668,426.981,-369.981C361.442,-453.744,256.724,-497.978,152.641,-519.849C53.42,-540.698,-52.838,-534.597,-143.856,-489.929C-228.181,-448.545,-258.781,-347.751,-327.818,-284.056C-409.082,-209.081,-569.178,-193.534,-583.886,-83.95C-598.641,25.984,-451.157,85.603,-389.84,178.034C-340.747,252.039,-324.643,343.628,-259.908,404.425C-186.726,473.156,-100.376,542.095,0,544.159" fill="#972f0f"></path><path d="M1440 1154.982C1550.5 1140.415 1587.017 994.562 1677.079 928.902 1759.37 868.908 1889.9479999999999 876.816 1941.784 789.157 1993.8609999999999 701.09 1952.726 589.644 1937.526 488.467 1922.421 387.924 1926.536 272.435 1853.524 201.68 1781.1970000000001 131.589 1661.153 163.55700000000002 1566.562 128.96800000000002 1462.492 90.91300000000001 1381.472-30.325000000000045 1272.391-10.823999999999955 1164.528 8.458999999999946 1120.509 138.176 1049.286 221.44400000000002 978.5930000000001 304.092 884.604 371.10900000000004 855.962 476.028 825.715 586.823 830.312 712.7860000000001 888.047 812.068 944.1759999999999 908.5899999999999 1064.188 938.273 1159.031 997.196 1252.156 1055.0520000000001 1331.306 1169.3110000000001 1440 1154.982" fill="#ec6a42"></path></g><defs><mask id="SvgjsMask1110"><rect width="1440" height="560" fill="#ffffff"></rect></mask></defs></svg>